<svg xmlns="http://www.w3.org/2000/svg" viewBox="0 0 168 256" fill="none" opacity="0.5">
  <circle cx="60" cy="20" r="1" fill="currentColor"/>
  <circle cx="120" cy="50" r="1.5" fill="currentColor"/>
  <circle cx="80" cy="90" r="1" fill="currentColor"/>
  <circle cx="150" cy="30" r="0.8" fill="currentColor"/>
  <circle cx="20" cy="60" r="1.2" fill="currentColor"/>
  <circle cx="140" cy="110" r="1" fill="currentColor"/>
  <circle cx="40" cy="130" r="0.8" fill="currentColor"/>
  <circle cx="100" cy="150" r="1.5" fill="currentColor"/>
  <circle cx="160" cy="160" r="1" fill="currentColor"/>
  <circle cx="30" cy="180" r="1.2" fill="currentColor"/>
  <circle cx="90" cy="190" r="0.8" fill="currentColor"/>
  <circle cx="150" cy="200" r="1" fill="currentColor"/>
  <circle cx="60" cy="220" r="1.5" fill="currentColor"/>
  <circle cx="130" cy="240" r="1" fill="currentColor"/>
  <circle cx="20" cy="250" r="0.8" fill="currentColor"/>
  <line x1="120" y1="50" x2="4" y2="4" stroke="currentColor" stroke-width="0.4" opacity="0.6"/>
  <line x1="120" y1="50" x2="80" y2="90" stroke="currentColor" stroke-width="0.4" opacity="0.5"/>
  <line x1="80" y1="90" x2="140" y2="110" stroke="currentColor" stroke-width="0.4" opacity="0.5"/>
  <line x1="100" y1="150" x2="60" y2="220" stroke="currentColor" stroke-width="0.4" opacity="0.4"/>
  <line x1="60" y1="220" x2="130" y2="240" stroke="currentColor" stroke-width="0.4" opacity="0.4"/>
  <line x1="20" y1="60" x2="60" y2="20" stroke="currentColor" stroke-width="0.4" opacity="0.4"/>
  <polygon points="120,50 114,44 126,44" fill="currentColor" opacity="0.8"/>
  <polygon points="100,150 94,144 106,144" fill="currentColor" opacity="0.6"/>
  <polygon points="60,20 56,14 64,14" fill="currentColor" opacity="0.5"/>
</svg>
